# xmcd
#
# Track frame offsets:
# 150
# 7843
# 23236
# 35174
# 51125
# 68199
# 87686
# 105644
# 125898
# 137048
# 163039
# 180592
# 195254
# 217722
# 232657
#
# Disc length: 3312 seconds
#
#
# Revision: 0
# Processed by: cddbd v1.5.2PL0 Copyright (c) Steve Scherf et al.
# Submitted via: FreeRIP 2.945 
#
DISCID=c40cee0f
DTITLE=Yummy Bingham - The First Seed
DYEAR=2006
DGENRE=R&B
TTITLE0=Intro
TTITLE1=Come Get it
TTITLE2=Is It Good To You
TTITLE3=I Don't Really
TTITLE4=You Ain't Ready
TTITLE5=Quickie
TTITLE6=Piece Of My Heart
TTITLE7=What More
TTITLE8=Just Leave
TTITLE9=One More Choice
TTITLE10=Had to Be Me
TTITLE11=All My Life
TTITLE12=Time
TTITLE13=Queenz
TTITLE14=Is it good to you
EXTD=
EXTT0=
EXTT1=
EXTT2=
EXTT3=
EXTT4=
EXTT5=
EXTT6=
EXTT7=
EXTT8=
EXTT9=
EXTT10=
EXTT11=
EXTT12=
EXTT13=
EXTT14=
PLAYORDER=
